<mxfile host="65bd71144e">
    <diagram name="Page-1" id="oYOppsWYt1pmjS8Wi_WP">
        <mxGraphModel dx="309" dy="-45" grid="1" gridSize="10" guides="0" tooltips="1" connect="0" arrows="0" fold="1" page="0" pageScale="1" pageWidth="850" pageHeight="1100" background="none" math="0" shadow="0">
            <root>
                <mxCell id="0"/>
                <mxCell id="1" parent="0"/>
                <mxCell id="kMzkdgJ_VAqO0c0qWMnR-94" value="" style="endArrow=none;html=1;rounded=0;strokeWidth=3;" parent="1" edge="1">
                    <mxGeometry width="50" height="50" relative="1" as="geometry">
                        <mxPoint x="800" y="500" as="sourcePoint"/>
                        <mxPoint x="820" y="500" as="targetPoint"/>
                    </mxGeometry>
                </mxCell>
                <mxCell id="kMzkdgJ_VAqO0c0qWMnR-96" value="" style="endArrow=none;html=1;rounded=0;strokeWidth=3;" parent="1" edge="1">
                    <mxGeometry width="50" height="50" relative="1" as="geometry">
                        <mxPoint x="800" y="500" as="sourcePoint"/>
                        <mxPoint x="800" y="500" as="targetPoint"/>
                    </mxGeometry>
                </mxCell>
                <mxCell id="kMzkdgJ_VAqO0c0qWMnR-97" value="" style="rounded=1;whiteSpace=wrap;html=1;strokeWidth=3;fillColor=none;" parent="1" vertex="1">
                    <mxGeometry x="790" y="470" width="20" height="20" as="geometry"/>
                </mxCell>
                <mxCell id="kMzkdgJ_VAqO0c0qWMnR-99" value="" style="endArrow=none;html=1;rounded=0;strokeWidth=3;" parent="1" edge="1">
                    <mxGeometry width="50" height="50" relative="1" as="geometry">
                        <mxPoint x="800" y="592" as="sourcePoint"/>
                        <mxPoint x="800" y="490" as="targetPoint"/>
                    </mxGeometry>
                </mxCell>
                <mxCell id="kMzkdgJ_VAqO0c0qWMnR-100" value="" style="endArrow=none;html=1;rounded=0;strokeWidth=3;" parent="1" edge="1">
                    <mxGeometry width="50" height="50" relative="1" as="geometry">
                        <mxPoint x="800" y="530" as="sourcePoint"/>
                        <mxPoint x="820" y="530" as="targetPoint"/>
                    </mxGeometry>
                </mxCell>
                <mxCell id="kMzkdgJ_VAqO0c0qWMnR-102" value="" style="endArrow=none;html=1;rounded=0;strokeWidth=3;" parent="1" edge="1">
                    <mxGeometry width="50" height="50" relative="1" as="geometry">
                        <mxPoint x="800" y="530" as="sourcePoint"/>
                        <mxPoint x="800" y="530" as="targetPoint"/>
                    </mxGeometry>
                </mxCell>
                <mxCell id="kMzkdgJ_VAqO0c0qWMnR-103" value="" style="endArrow=none;html=1;rounded=0;strokeWidth=3;" parent="1" edge="1">
                    <mxGeometry width="50" height="50" relative="1" as="geometry">
                        <mxPoint x="800" y="560" as="sourcePoint"/>
                        <mxPoint x="820" y="560" as="targetPoint"/>
                    </mxGeometry>
                </mxCell>
                <mxCell id="kMzkdgJ_VAqO0c0qWMnR-105" value="" style="endArrow=none;html=1;rounded=0;strokeWidth=3;" parent="1" edge="1">
                    <mxGeometry width="50" height="50" relative="1" as="geometry">
                        <mxPoint x="800" y="560" as="sourcePoint"/>
                        <mxPoint x="800" y="560" as="targetPoint"/>
                    </mxGeometry>
                </mxCell>
                <mxCell id="kMzkdgJ_VAqO0c0qWMnR-106" value="" style="endArrow=none;html=1;rounded=0;strokeWidth=3;" parent="1" edge="1">
                    <mxGeometry width="50" height="50" relative="1" as="geometry">
                        <mxPoint x="798" y="590" as="sourcePoint"/>
                        <mxPoint x="820" y="590" as="targetPoint"/>
                    </mxGeometry>
                </mxCell>
                <mxCell id="kMzkdgJ_VAqO0c0qWMnR-108" value="" style="endArrow=none;html=1;rounded=0;strokeWidth=3;" parent="1" edge="1">
                    <mxGeometry width="50" height="50" relative="1" as="geometry">
                        <mxPoint x="800" y="590" as="sourcePoint"/>
                        <mxPoint x="800" y="590" as="targetPoint"/>
                    </mxGeometry>
                </mxCell>
                <mxCell id="kMzkdgJ_VAqO0c0qWMnR-114" value="" style="rounded=1;whiteSpace=wrap;html=1;strokeWidth=3;fillColor=none;" parent="1" vertex="1">
                    <mxGeometry x="820" y="490" width="20" height="20" as="geometry"/>
                </mxCell>
                <mxCell id="kMzkdgJ_VAqO0c0qWMnR-115" value="" style="rounded=1;whiteSpace=wrap;html=1;strokeWidth=3;fillColor=none;" parent="1" vertex="1">
                    <mxGeometry x="820" y="520" width="20" height="20" as="geometry"/>
                </mxCell>
                <mxCell id="kMzkdgJ_VAqO0c0qWMnR-116" value="" style="rounded=1;whiteSpace=wrap;html=1;strokeWidth=3;fillColor=none;" parent="1" vertex="1">
                    <mxGeometry x="820" y="550" width="20" height="20" as="geometry"/>
                </mxCell>
                <mxCell id="kMzkdgJ_VAqO0c0qWMnR-117" value="" style="rounded=1;whiteSpace=wrap;html=1;strokeWidth=3;fillColor=none;" parent="1" vertex="1">
                    <mxGeometry x="820" y="580" width="20" height="20" as="geometry"/>
                </mxCell>
            </root>
        </mxGraphModel>
    </diagram>
</mxfile>